<svg xmlns="http://www.w3.org/2000/svg" viewBox="0 0 1926.94 1080"><defs><style>.cls-1{fill:#271d40;}.cls-2{fill:#2e2345;}.cls-3{fill:#251a38;}</style></defs><g id="Layer_2" data-name="Layer 2"><g id="Layer_1-2" data-name="Layer 1"><rect class="cls-1" width="28.34" height="1080"/><rect class="cls-2" x="28.34" width="28.34" height="1080"/><rect class="cls-2" x="85.01" width="28.34" height="1080"/><rect class="cls-3" x="56.67" width="28.34" height="1080"/><rect class="cls-1" x="113.35" width="28.34" height="1080"/><rect class="cls-2" x="141.69" width="28.34" height="1080"/><rect class="cls-2" x="198.36" width="28.34" height="1080"/><rect class="cls-3" x="170.02" width="28.34" height="1080"/><rect class="cls-1" x="226.7" width="28.34" height="1080"/><rect class="cls-2" x="255.04" width="28.34" height="1080"/><rect class="cls-2" x="311.71" width="28.34" height="1080"/><rect class="cls-3" x="283.37" width="28.34" height="1080"/><rect class="cls-1" x="340.05" width="28.34" height="1080"/><rect class="cls-2" x="368.39" width="28.34" height="1080"/><rect class="cls-2" x="425.06" width="28.34" height="1080"/><rect class="cls-3" x="396.72" width="28.34" height="1080"/><rect class="cls-1" x="453.4" width="28.34" height="1080"/><rect class="cls-2" x="481.73" width="28.34" height="1080"/><rect class="cls-2" x="538.41" width="28.34" height="1080"/><rect class="cls-3" x="510.07" width="28.34" height="1080"/><rect class="cls-1" x="566.75" width="28.34" height="1080"/><rect class="cls-2" x="595.08" width="28.34" height="1080"/><rect class="cls-2" x="651.76" width="28.34" height="1080"/><rect class="cls-3" x="623.42" width="28.34" height="1080"/><rect class="cls-1" x="680.1" width="28.34" height="1080"/><rect class="cls-2" x="708.43" width="28.34" height="1080"/><rect class="cls-2" x="765.11" width="28.34" height="1080"/><rect class="cls-3" x="736.77" width="28.34" height="1080"/><rect class="cls-1" x="793.45" width="28.34" height="1080"/><rect class="cls-2" x="821.78" width="28.34" height="1080"/><rect class="cls-2" x="878.46" width="28.34" height="1080"/><rect class="cls-3" x="850.12" width="28.34" height="1080"/><rect class="cls-1" x="906.8" width="28.34" height="1080"/><rect class="cls-2" x="935.13" width="28.34" height="1080"/><rect class="cls-2" x="991.81" width="28.34" height="1080"/><rect class="cls-3" x="963.47" width="28.34" height="1080"/><rect class="cls-1" x="1020.14" width="28.34" height="1080"/><rect class="cls-2" x="1048.48" width="28.34" height="1080"/><rect class="cls-2" x="1105.16" width="28.34" height="1080"/><rect class="cls-3" x="1076.82" width="28.34" height="1080"/><rect class="cls-1" x="1133.49" width="28.34" height="1080"/><rect class="cls-2" x="1161.83" width="28.34" height="1080"/><rect class="cls-2" x="1218.51" width="28.34" height="1080"/><rect class="cls-3" x="1190.17" width="28.34" height="1080"/><rect class="cls-1" x="1246.84" width="28.34" height="1080"/><rect class="cls-2" x="1275.18" width="28.34" height="1080"/><rect class="cls-2" x="1331.86" width="28.34" height="1080"/><rect class="cls-3" x="1303.52" width="28.34" height="1080"/><rect class="cls-1" x="1360.19" width="28.34" height="1080"/><rect class="cls-2" x="1388.53" width="28.34" height="1080"/><rect class="cls-2" x="1445.2" width="28.34" height="1080"/><rect class="cls-3" x="1416.87" width="28.34" height="1080"/><rect class="cls-1" x="1473.54" width="28.34" height="1080"/><rect class="cls-2" x="1501.88" width="28.34" height="1080"/><rect class="cls-2" x="1558.55" width="28.34" height="1080"/><rect class="cls-3" x="1530.22" width="28.34" height="1080"/><rect class="cls-1" x="1586.89" width="28.34" height="1080"/><rect class="cls-2" x="1615.23" width="28.34" height="1080"/><rect class="cls-2" x="1671.9" width="28.34" height="1080"/><rect class="cls-3" x="1643.57" width="28.34" height="1080"/><rect class="cls-1" x="1700.24" width="28.34" height="1080"/><rect class="cls-2" x="1728.58" width="28.34" height="1080"/><rect class="cls-2" x="1785.25" width="28.34" height="1080"/><rect class="cls-3" x="1756.92" width="28.34" height="1080"/><rect class="cls-1" x="1813.59" width="28.34" height="1080"/><rect class="cls-2" x="1841.93" width="28.34" height="1080"/><rect class="cls-2" x="1898.6" width="28.34" height="1080"/><rect class="cls-3" x="1870.27" width="28.34" height="1080"/></g></g></svg>