<svg xmlns="http://www.w3.org/2000/svg" xmlns:xlink="http://www.w3.org/1999/xlink" viewBox="0 0 410.26 671.16"><defs><style>.cls-1{fill:url(#linear-gradient);}.cls-2{fill:#ff0;}.cls-3{fill:#743b2e;}.cls-4{fill:#824430;}.cls-5{fill:#99583e;}.cls-6{fill:#b16b4e;}</style><linearGradient id="linear-gradient" x1="205.13" y1="666.77" x2="205.13" y2="448.97" gradientUnits="userSpaceOnUse"><stop offset="0" stop-color="#ff0" stop-opacity="0"/><stop offset="1" stop-color="#ff0"/></linearGradient></defs><g id="Layer_2" data-name="Layer 2"><g id="Layer_1-2" data-name="Layer 1"><polygon class="cls-1" points="316.74 496.66 99.17 496.66 0 671.16 410.26 671.16 316.74 496.66"/><polygon class="cls-2" points="76.9 499.66 341.77 497.88 343.02 29.45 70.17 31.29 76.9 499.66 76.9 499.66"/><path class="cls-3" d="M42.46.3c9.35,186.23,17.78,354.06,25.41,506.08l27.75-.18C82.55,355.64,68.13,189.58,52.15,5.51L42.46.3Z"/><path class="cls-4" d="M328.31.92c-5.69,178.77-10.94,343.7-15.81,496.33l9.87,10,18.57-4.58C347.56,349,354.72,182.76,362.48,2.47L328.31.92Z"/><path class="cls-3" d="M365.54.8,42.35.3q.72,13.6,1.45,27.1l319.57,1.92,8.95-22.76c-1.23-.47-6.38-5-6.78-5.76Z"/><path class="cls-5" d="M372.32,6.56,52.23,5.47Q53,19.06,53.76,32.53l313.37,1.91q2.58-13.87,5.19-27.88Z"/><path class="cls-5" d="M336.77,6.42c-5.46,180.33-10.5,346.55-15.16,500.27l27.1-.18C356,352.88,363.8,186.76,372.32,6.56l-35.55-.14Z"/><path class="cls-5" d="M52.41,10.26,76,506.33l27.74-.19C99,361.79,93.58,198.35,87.44,11.79l-35-1.53Z"/><path class="cls-5" d="M52.23,5.47l284.54,1v0l35.55.14c-8.52,180.2-16.36,346.32-23.61,500l-8.69.06L363.14,13.15,52.59,11.8l-.36-6.33Z"/><path class="cls-6" d="M88.13,32.74l12.45,473.15,178.83,22.65c4.43-162.34,9.22-338,14.41-528.54L88.13,32.74Z"/><path class="cls-4" d="M254.24,196.23q-.5,62.57-1,122.4l-133.15-1.86q-1.87-56.17-3.81-114.68l137.92-5.86Z"/><path class="cls-3" d="M120.23,207.3l134-5.15c0-2,0-3.92.05-5.92l-137.93,5.86q1.95,58.52,3.82,114.68l3.75.06q-1.78-53.71-3.65-109.53Z"/><path class="cls-4" d="M253.33,364.34q-.47,58.08-.9,113.72l-128.77-15.8q-1.75-52.65-3.59-107.4l133.26,9.48Z"/><path class="cls-3" d="M123.52,359.83l129.77,9.69c0-1.74,0-3.43,0-5.18l-133.26-9.48q1.83,54.76,3.59,107.4l3.3.4q-1.69-50.48-3.44-102.83Z"/><path class="cls-4" d="M257.55,42.7Q256,96.82,254.38,150.94L113.12,162.87q-1.4-48.21-2.8-96.42L257.55,42.7Z"/><path class="cls-3" d="M114.05,70.43,257.41,47.3c0-1.53.09-3.07.14-4.6L110.32,66.45q1.4,48.21,2.8,96.42l3.62-.3q-1.35-46.06-2.69-92.14Z"/><path class="cls-3" d="M266.45,271.36c-5.34,1-9.12,7.56-7.74,14,1.23,5.77,6.15,9.63,10.77,9.05,6.15-.77,10.21-9.21,7.84-16-1.69-4.83-6.38-8-10.87-7.11Z"/><path class="cls-4" d="M266.69,266.08c-5.35,1.06-9.13,7.6-7.75,14.07,1.23,5.76,6.15,9.6,10.77,9,6.16-.79,10.21-9.24,7.85-16-1.69-4.84-6.39-8-10.87-7.09Z"/><polygon class="cls-4" points="293.82 0 303.52 4.5 290 518.62 279.41 528.54 293.82 0 293.82 0"/></g></g></svg>