<svg xmlns="http://www.w3.org/2000/svg" xmlns:xlink="http://www.w3.org/1999/xlink" viewBox="0 0 410.26 670.86"><defs><style>.cls-1{fill:url(#linear-gradient);}.cls-2{fill:#b16b4e;}.cls-3{fill:#743b2e;}.cls-4{fill:#824430;}.cls-5{fill:#99583e;}</style><linearGradient id="linear-gradient" x1="205.13" y1="666.48" x2="205.13" y2="448.67" gradientUnits="userSpaceOnUse"><stop offset="0" stop-color="#ff0" stop-opacity="0"/><stop offset="1" stop-color="#ff0"/></linearGradient></defs><g id="Layer_2" data-name="Layer 2"><g id="Layer_1-2" data-name="Layer 1"><polygon class="cls-1" points="316.74 496.36 99.17 496.36 0 670.86 410.26 670.86 316.74 496.36"/><polygon class="cls-2" points="100.2 498.11 329.04 496.57 341.85 29.18 78.39 30.96 100.2 498.11 100.2 498.11"/><polygon class="cls-2" points="74.58 135.09 339.61 133.31 343.32 29.18 70.3 31.01 74.58 135.09 74.58 135.09"/><polygon class="cls-2" points="102.07 498.1 336.4 496.52 339.18 423.9 99.34 425.51 102.07 498.1 102.07 498.1"/><path class="cls-3" d="M42.58,0C51.93,186.34,60.36,354.27,68,506.38l27.76-.18c-13.07-150.65-27.5-316.8-43.48-501L42.58,0Z"/><path class="cls-4" d="M328.6.62c-5.7,178.88-11,343.9-15.82,496.62l9.87,10,18.58-4.59c6.62-153.8,13.79-320.1,21.56-500.49L328.6.62Z"/><path class="cls-3" d="M365.85.5,42.46,0q.74,13.62,1.46,27.12L363.67,29q4.47-11.34,9-22.77c-1.24-.48-6.39-5-6.78-5.77Z"/><path class="cls-5" d="M372.63,6.27,52.36,5.18q.77,13.59,1.52,27.07l313.56,1.92q2.58-13.89,5.19-27.9Z"/><path class="cls-5" d="M337.06,6.13c-5.47,180.43-10.51,346.75-15.17,500.56l27.11-.18c7.26-153.72,15.11-319.93,23.63-500.24l-35.57-.14Z"/><path class="cls-5" d="M52.53,10,76.08,506.33l27.77-.19C99.1,361.7,93.72,198.17,87.59,11.5L52.53,10Z"/><path class="cls-4" d="M291.39,200.51q-.56,55.63-1.09,108.92l-164.89,1q-2.53-55-5.2-112.55l171.18,2.61Z"/><path class="cls-3" d="M125.55,203.25l165.78,2.52c0-1.77,0-3.49.06-5.26L120.21,197.9q2.66,57.54,5.2,112.55l5.1,0q-2.43-52.47-5-107.17Z"/><path class="cls-4" d="M290.36,350.13q-.51,51.74-1,101.35l-159.14,1q-2.39-51.22-4.87-104.71l165,2.38Z"/><path class="cls-3" d="M130,352.43l160.29,2.31c0-1.55,0-3.06.05-4.61l-165-2.38q2.49,53.49,4.87,104.71l4.46,0q-2.28-49-4.65-100Z"/><path class="cls-4" d="M292.71,64.9q-.18,50.38-.34,99.69l-173.28-2.93q-1.17-48.46-2.36-97.94l176,1.18Z"/><path class="cls-3" d="M121.87,73.23l170.81,1.15c0-3.18,0-6.28,0-9.48l-176-1.18q1.2,49.48,2.36,97.94l4.91.08c-.7-29.25-1.41-58.69-2.13-88.51Z"/><path class="cls-5" d="M52.36,5.18l284.7,1v0l35.57.14C364.11,186.58,356.26,352.79,349,506.51l-8.68.06,23.13-493.7L52.71,11.51q-.18-3.16-.35-6.33Z"/><path class="cls-3" d="M303.26,261.06a10.57,10.57,0,0,0-8.17,12.72,10.45,10.45,0,0,0,11.34,7.64c6.41-.93,10.61-8.5,8.16-14.38a10.4,10.4,0,0,0-11.33-6Z"/><path class="cls-4" d="M303.5,256.38a10.57,10.57,0,0,0-8.17,12.72,10.44,10.44,0,0,0,11.34,7.63c6.42-.92,10.61-8.5,8.17-14.37a10.39,10.39,0,0,0-11.34-6Z"/></g></g></svg>